<mxfile host="app.diagrams.net" modified="2020-04-09T08:02:21.502Z" agent="5.0 (Windows NT 10.0; Win64; x64) AppleWebKit/537.36 (KHTML, like Gecko) Chrome/80.0.3987.163 Safari/537.36" etag="61upk9KWInwtNA09DmHw" version="12.9.10" type="github">
  <diagram id="2JxPlovIaGC3V-dD-guE" name="Page-1">
    <mxGraphModel dx="868" dy="450" grid="1" gridSize="10" guides="1" tooltips="1" connect="1" arrows="1" fold="1" page="1" pageScale="1" pageWidth="827" pageHeight="1169" math="0" shadow="0">
      <root>
        <mxCell id="0" />
        <mxCell id="1" parent="0" />
        <mxCell id="46Xl6bzAERD-uTKLcA3Q-10" style="edgeStyle=orthogonalEdgeStyle;rounded=0;orthogonalLoop=1;jettySize=auto;html=1;entryX=0;entryY=0.5;entryDx=0;entryDy=0;" edge="1" parent="1" source="46Xl6bzAERD-uTKLcA3Q-2" target="46Xl6bzAERD-uTKLcA3Q-4">
          <mxGeometry relative="1" as="geometry" />
        </mxCell>
        <mxCell id="46Xl6bzAERD-uTKLcA3Q-2" value="&lt;b style=&quot;font-size: 16px&quot;&gt;&lt;font style=&quot;font-size: 16px&quot;&gt;Selinium Language Bindings&lt;br&gt;&lt;br&gt;&lt;br&gt;&lt;/font&gt;&lt;/b&gt;&lt;ol style=&quot;font-size: 16px&quot;&gt;&lt;li&gt;&lt;b&gt;&lt;font style=&quot;font-size: 16px&quot;&gt;Java&lt;/font&gt;&lt;/b&gt;&lt;/li&gt;&lt;li&gt;&lt;b&gt;&lt;font style=&quot;font-size: 16px&quot;&gt;C#&lt;/font&gt;&lt;/b&gt;&lt;/li&gt;&lt;li&gt;&lt;b&gt;&lt;font style=&quot;font-size: 16px&quot;&gt;Python&lt;/font&gt;&lt;/b&gt;&lt;/li&gt;&lt;li&gt;&lt;b&gt;&lt;font style=&quot;font-size: 16px&quot;&gt;Ruby&lt;/font&gt;&lt;/b&gt;&lt;/li&gt;&lt;li&gt;&lt;b&gt;&lt;font style=&quot;font-size: 16px&quot;&gt;JavaScript&lt;/font&gt;&lt;/b&gt;&lt;/li&gt;&lt;/ol&gt;" style="rounded=0;whiteSpace=wrap;html=1;" vertex="1" parent="1">
          <mxGeometry x="40" y="80" width="170" height="250" as="geometry" />
        </mxCell>
        <mxCell id="46Xl6bzAERD-uTKLcA3Q-11" style="edgeStyle=orthogonalEdgeStyle;rounded=0;orthogonalLoop=1;jettySize=auto;html=1;entryX=0;entryY=0.5;entryDx=0;entryDy=0;" edge="1" parent="1" source="46Xl6bzAERD-uTKLcA3Q-4" target="46Xl6bzAERD-uTKLcA3Q-7">
          <mxGeometry relative="1" as="geometry" />
        </mxCell>
        <mxCell id="46Xl6bzAERD-uTKLcA3Q-4" value="&lt;b&gt;JSON Wire Protocol&lt;/b&gt;" style="ellipse;whiteSpace=wrap;html=1;aspect=fixed;" vertex="1" parent="1">
          <mxGeometry x="260" y="165" width="80" height="80" as="geometry" />
        </mxCell>
        <mxCell id="46Xl6bzAERD-uTKLcA3Q-7" value="&lt;font style=&quot;font-size: 16px&quot;&gt;&lt;b&gt;Browser Drivers&lt;br&gt;&lt;br&gt;&lt;br&gt;&lt;br&gt;&lt;/b&gt;&lt;/font&gt;&lt;ol style=&quot;font-size: 16px&quot;&gt;&lt;li&gt;&lt;font style=&quot;font-size: 16px&quot;&gt;&lt;b&gt;Firefox Driver&lt;/b&gt;&lt;/font&gt;&lt;/li&gt;&lt;li&gt;&lt;font style=&quot;font-size: 16px&quot;&gt;&lt;b&gt;Chrome Driver&lt;/b&gt;&lt;/font&gt;&lt;/li&gt;&lt;li&gt;&lt;font style=&quot;font-size: 16px&quot;&gt;&lt;b&gt;Safari Driver&lt;/b&gt;&lt;/font&gt;&lt;/li&gt;&lt;/ol&gt;" style="rounded=0;whiteSpace=wrap;html=1;" vertex="1" parent="1">
          <mxGeometry x="390" y="80" width="180" height="250" as="geometry" />
        </mxCell>
        <mxCell id="46Xl6bzAERD-uTKLcA3Q-9" value="&lt;font style=&quot;font-size: 16px&quot;&gt;&lt;b&gt;Real Browser&lt;br&gt;&lt;br&gt;&lt;br&gt;&lt;br&gt;&lt;/b&gt;&lt;/font&gt;&lt;ol style=&quot;font-size: 16px&quot;&gt;&lt;li&gt;&lt;font style=&quot;font-size: 16px&quot;&gt;&lt;b&gt;Firefox Browser&lt;/b&gt;&lt;/font&gt;&lt;/li&gt;&lt;li&gt;&lt;font style=&quot;font-size: 16px&quot;&gt;&lt;b&gt;Chrome Browser&lt;/b&gt;&lt;/font&gt;&lt;/li&gt;&lt;li&gt;&lt;font style=&quot;font-size: 16px&quot;&gt;&lt;b&gt;Safari Browser&lt;/b&gt;&lt;/font&gt;&lt;/li&gt;&lt;/ol&gt;" style="rounded=0;whiteSpace=wrap;html=1;" vertex="1" parent="1">
          <mxGeometry x="620" y="80" width="180" height="250" as="geometry" />
        </mxCell>
        <mxCell id="46Xl6bzAERD-uTKLcA3Q-16" value="" style="endArrow=classic;html=1;exitX=0.5;exitY=0;exitDx=0;exitDy=0;entryX=0.5;entryY=0;entryDx=0;entryDy=0;" edge="1" parent="1" source="46Xl6bzAERD-uTKLcA3Q-7" target="46Xl6bzAERD-uTKLcA3Q-9">
          <mxGeometry width="50" height="50" relative="1" as="geometry">
            <mxPoint x="390" y="260" as="sourcePoint" />
            <mxPoint x="620" y="10" as="targetPoint" />
            <Array as="points">
              <mxPoint x="590" y="40" />
            </Array>
          </mxGeometry>
        </mxCell>
        <mxCell id="46Xl6bzAERD-uTKLcA3Q-17" value="" style="endArrow=classic;html=1;exitX=0.433;exitY=1.004;exitDx=0;exitDy=0;exitPerimeter=0;" edge="1" parent="1" source="46Xl6bzAERD-uTKLcA3Q-9">
          <mxGeometry width="50" height="50" relative="1" as="geometry">
            <mxPoint x="490" y="410" as="sourcePoint" />
            <mxPoint x="480" y="331" as="targetPoint" />
            <Array as="points">
              <mxPoint x="600" y="370" />
            </Array>
          </mxGeometry>
        </mxCell>
        <mxCell id="46Xl6bzAERD-uTKLcA3Q-18" value="&lt;b&gt;HTTP over HTTP Server&lt;/b&gt;" style="text;html=1;strokeColor=none;fillColor=none;align=center;verticalAlign=middle;whiteSpace=wrap;rounded=0;" vertex="1" parent="1">
          <mxGeometry x="520" y="10" width="150" height="20" as="geometry" />
        </mxCell>
        <mxCell id="46Xl6bzAERD-uTKLcA3Q-19" value="&lt;b&gt;HTTP over HTTP Server&lt;/b&gt;" style="text;html=1;strokeColor=none;fillColor=none;align=center;verticalAlign=middle;whiteSpace=wrap;rounded=0;" vertex="1" parent="1">
          <mxGeometry x="520" y="380" width="150" height="20" as="geometry" />
        </mxCell>
      </root>
    </mxGraphModel>
  </diagram>
</mxfile>
